<svg id="Capa_1" data-name="Capa 1" xmlns="http://www.w3.org/2000/svg" viewBox="0 0 1024 1024"><defs><style>.cls-1{fill:#fff;}</style></defs><title>logo-letras-2020 </title><path class="cls-1" d="M391.33,290.22V626.13q0,15.72-8.34,24.36t-23.15,8.64H65.61v81.7H359.84a116,116,0,0,0,45.07-8.63,106.6,106.6,0,0,0,35.66-24.05,109.73,109.73,0,0,0,23.32-36.44,122.86,122.86,0,0,0,8.32-45.58V290.22Z"/><path class="cls-1" d="M377.48,644.07c4.95-5.07,7.46-12.45,7.46-21.93V290.88H292.55V651.66h64C365.66,651.66,372.5,649.17,377.48,644.07Z"/><path class="cls-1" d="M852,290.88q-18.15,40.78-37.24,81.77T774,453.39q-21.68,39.75-46.88,77.2a592.47,592.47,0,0,1-56.33,71.16V344.56a57.53,57.53,0,0,0-8-29.75A47.8,47.8,0,0,0,641.12,295a42,42,0,0,0-28-3.54,45.41,45.41,0,0,0-24.65,14.78L479.69,442.84v160L574,484.39V686.23a61.74,61.74,0,0,0,3.7,21.64,51.94,51.94,0,0,0,10.38,17.27,49.11,49.11,0,0,0,15.57,11.45A45,45,0,0,0,623,740.75q25.2,0,53.55-17.27t58.19-47.86q29.82-30.58,60.22-72.83t59.48-92.18q29.1-49.94,55.78-105.91t49.66-113.82Z"/></svg>